# xmcd CD database file
#
# Track frame offsets:
#	150
#	16158
#	30734
#	49262
#	63655
#	78190
#	94153
#	110360
#	127996
#	148335
#	164515
#	175140
#	190468
#	207540
#	220468
#	234863
#	250208
#	264869
#	276340
#	288037
#
# Disc length: 4136 seconds
#
# Revision: 0
# Processed by: cddbd v1.5.2PL0 Copyright (c) Steve Scherf et al.
# Submitted via: CDex 2.10
#
DISCID=27102614
DTITLE=Various Artist - Hott Country 21
DYEAR=1999
DGENRE=Country
TTITLE0=Trisha Yearwood ft. Garth Brooks - In Another`s Eyes
TTITLE1=Brooks and Dunn - Honky Tonk Truth
TTITLE2=Reba McEntire - What If It`s You
TTITLE3=Geroge Strait - Today My World Slipped Away
TTITLE4=Trace Adkins - The Rest Of Mine
TTITLE5=Pam Tillis - Land Of The Living
TTITLE6=Michael Peterson - From Here To Eternity
TTITLE7=Tracy Lawerence - The Coast Is Clear
TTITLE8=Lonestar - You Walked In
TTITLE9=Martina McBride - A Broken Wing
TTITLE10=GAry Allen - Living In A House Full Of Love
TTITLE11=Ty Herndon - I Have To Surrender
TTITLE12=Sona Of The Desert - Hand Of Fate
TTITLE13=Ricohe - Blink Of An Eye
TTITLE14=Rick Trevino - See Rock City
TTITLE15=Julian Austin - Diamond
TTITLE16=Matraca Berg - That Train Don`t Run
TTITLE17=Duane Steele - Tell The Girl
TTITLE18=Cindy Church - Lover Please
TTITLE19=John Anderson - Small Town
EXTD=YEAR: 1999
EXTT0=
EXTT1=
EXTT2=
EXTT3=
EXTT4=
EXTT5=
EXTT6=
EXTT7=
EXTT8=
EXTT9=
EXTT10=
EXTT11=
EXTT12=
EXTT13=
EXTT14=
EXTT15=
EXTT16=
EXTT17=
EXTT18=
EXTT19=
PLAYORDER=
